<svg viewBox="0 0 80 135" xmlns="http://www.w3.org/2000/svg">
	<defs>
	</defs>
	<g stroke-width="0.50" fill="none" stroke-linecap="butt" transform="matrix(1, 0, 0, 1, -125.707054, -150.586105)">
		<path fill="#ac7767" d="   M 153.48 153.06   Q 152.77 153.52 152.76 154.02   Q 152.75 154.49 153.20 154.62   Q 154.57 155.02 154.24 157.21   C 148.20 157.17 148.81 161.69 150.06 165.98   Q 154.08 179.73 157.82 193.32   Q 155.35 195.02 156.51 198.82   Q 156.63 199.22 156.22 199.15   Q 155.42 199.02 155.22 198.50   Q 154.52 196.73 153.53 192.75   Q 149.71 180.21 146.35 167.47   C 144.39 160.04 144.84 154.41 153.48 153.06   Z">
		</path>
		<path fill="#eab3a2" d="   M 153.48 153.06   C 160.44 153.79 161.16 158.90 163.16 165.63   Q 167.79 181.21 172.37 196.81   Q 172.57 197.48 172.76 196.81   L 178.11 178.37   L 181.07 182.78   L 175.44 202.80   Q 175.29 202.70 175.24 203.04   Q 175.22 203.19 175.37 203.21   L 175.69 203.25   Q 175.89 203.28 175.88 203.48   L 175.77 206.73   L 158.55 210.02   A 0.55 0.55 0.0 0 0 158.13 210.74   C 160.35 217.06 167.77 217.89 173.57 216.27   Q 172.80 220.74 172.19 221.04   L 166.41 221.06   L 165.55 218.87   Q 165.35 218.36 164.81 218.29   Q 162.68 218.05 161.17 220.19   Q 153.82 216.17 153.79 208.07   Q 153.79 207.58 154.13 207.22   Q 155.05 206.28 156.81 206.18   Q 157.52 206.52 158.02 207.66   A 1.50 1.47 3.8 0 0 158.61 208.32   C 161.07 209.77 162.91 207.41 161.52 205.11   L 169.60 203.63   Q 169.96 203.56 169.92 203.20   Q 169.87 202.86 169.77 202.54   Q 163.56 181.25 157.23 160.01   Q 156.68 158.16 154.24 157.21   Q 154.57 155.02 153.20 154.62   Q 152.75 154.49 152.76 154.02   Q 152.77 153.52 153.48 153.06   Z">
		</path>
		<path fill="#9a6556" d="   M 194.50 179.63   Q 193.24 174.84 191.77 173.83   Q 192.82 169.04 193.89 163.95   C 194.56 160.80 193.23 159.26 190.13 159.02   Q 191.28 155.62 189.16 155.04   Q 195.23 154.90 197.28 158.75   C 199.55 163.02 195.80 174.76 194.50 179.63   Z">
		</path>
		<path fill="#d49e8d" d="   M 189.16 155.04   Q 191.28 155.62 190.13 159.02   Q 187.06 160.98 186.02 165.15   C 184.58 170.96 182.73 176.79 181.07 182.78   L 178.11 178.37   C 179.70 171.75 182.14 157.40 189.16 155.04   Z">
		</path>
		<path fill="#291d17" d="   M 154.24 157.21   Q 156.68 158.16 157.23 160.01   Q 163.56 181.25 169.77 202.54   Q 169.87 202.86 169.92 203.20   Q 169.96 203.56 169.60 203.63   L 161.52 205.11   L 157.82 193.32   Q 154.08 179.73 150.06 165.98   C 148.81 161.69 148.20 157.17 154.24 157.21   Z">
		</path>
		<path fill="#291d17" d="   M 190.13 159.02   C 193.23 159.26 194.56 160.80 193.89 163.95   Q 192.82 169.04 191.77 173.83   C 189.30 184.08 186.04 195.16 185.48 205.50   Q 185.45 206.09 185.15 205.58   L 183.39 202.50   Q 183.15 202.09 182.69 201.99   Q 179.20 201.26 175.44 202.80   L 181.07 182.78   C 182.73 176.79 184.58 170.96 186.02 165.15   Q 187.06 160.98 190.13 159.02   Z">
		</path>
		<path fill="#c08a7a" d="   M 191.77 173.83   Q 193.24 174.84 194.50 179.63   Q 192.53 188.56 190.52 198.10   C 189.06 205.06 189.52 211.20 190.26 217.99   L 186.99 219.88   L 181.22 206.21   Q 181.02 205.73 180.51 205.82   L 175.77 206.73   L 175.88 203.48   Q 175.89 203.28 175.69 203.25   L 175.37 203.21   Q 175.22 203.19 175.24 203.04   Q 175.29 202.70 175.44 202.80   Q 179.20 201.26 182.69 201.99   Q 183.15 202.09 183.39 202.50   L 185.15 205.58   Q 185.45 206.09 185.48 205.50   C 186.04 195.16 189.30 184.08 191.77 173.83   Z">
		</path>
		<path fill="#d49e8d" d="   M 153.53 192.75   Q 154.52 196.73 155.22 198.50   Q 155.42 199.02 156.22 199.15   Q 156.63 199.22 156.51 198.82   Q 155.35 195.02 157.82 193.32   L 161.52 205.11   C 162.91 207.41 161.07 209.77 158.61 208.32   A 1.50 1.47 3.8 0 1 158.02 207.66   Q 157.52 206.52 156.81 206.18   C 156.04 202.39 154.62 195.38 149.32 196.54   L 148.42 192.64   Q 151.02 191.64 153.53 192.75   Z">
		</path>
		<path fill="#ac7767" d="   M 148.42 192.64   L 149.32 196.54   C 144.57 198.62 147.52 204.63 148.61 208.21   L 148.01 208.04   A 0.56 0.56 0.0 0 0 147.32 208.73   Q 149.14 215.08 149.99 221.84   C 150.13 222.95 149.78 223.45 149.12 224.25   L 142.95 205.36   L 142.38 200.07   Q 143.51 194.27 148.42 192.64   Z">
		</path>
		<path fill="#291d17" d="   M 156.81 206.18   Q 155.05 206.28 154.13 207.22   Q 153.79 207.58 153.79 208.07   Q 153.82 216.17 161.17 220.19   C 163.28 223.96 165.52 230.24 158.14 230.31   Q 156.14 230.25 155.56 228.94   Q 152.41 221.79 148.61 208.21   C 147.52 204.63 144.57 198.62 149.32 196.54   C 154.62 195.38 156.04 202.39 156.81 206.18   Z">
		</path>
		<path fill="#c08a7a" d="   M 142.38 200.07   L 142.95 205.36   Q 138.13 200.88 136.70 205.85   C 135.75 209.12 137.80 213.67 138.92 216.85   Q 136.75 216.07 137.83 218.34   C 139.55 221.96 139.81 226.19 138.91 230.01   L 134.52 217.32   Q 134.38 214.86 134.69 212.25   C 134.98 209.82 134.09 207.17 135.42 204.52   Q 135.64 204.09 135.55 203.61   L 135.11 201.00   Q 138.73 198.32 142.38 200.07   Z">
		</path>
		<path fill="#9a6556" d="   M 135.11 201.00   L 135.55 203.61   Q 135.64 204.09 135.42 204.52   C 134.09 207.17 134.98 209.82 134.69 212.25   Q 134.38 214.86 134.52 217.32   C 132.45 233.23 135.56 247.19 140.96 262.04   Q 138.53 262.49 138.50 266.56   C 130.96 249.62 126.35 230.31 131.45 211.80   C 132.53 207.86 131.54 204.09 135.11 201.00   Z">
		</path>
		<path fill="#291d17" d="   M 142.95 205.36   L 149.12 224.25   L 151.23 230.73   Q 150.95 234.37 147.34 234.27   C 143.41 234.49 140.70 222.73 138.92 216.85   C 137.80 213.67 135.75 209.12 136.70 205.85   Q 138.13 200.88 142.95 205.36   Z">
		</path>
		<path fill="#291d17" d="   M 186.99 219.88   L 193.82 236.96   Q 194.00 237.42 193.72 237.84   L 184.25 251.85   C 181.88 254.99 179.30 257.92 178.64 261.86   C 178.09 265.12 179.29 273.15 173.25 271.83   L 148.63 272.09   L 144.49 271.67   Q 143.99 271.62 143.83 271.14   L 140.96 262.04   C 135.56 247.19 132.45 233.23 134.52 217.32   L 138.91 230.01   Q 140.19 236.68 145.93 238.20   Q 151.36 239.57 155.01 233.76   Q 158.30 234.97 160.17 234.09   C 167.21 233.33 169.01 228.21 166.37 222.31   C 166.16 221.85 166.22 221.47 166.41 221.06   L 172.19 221.04   L 174.43 225.53   Q 174.67 226.02 174.19 226.30   L 168.84 229.41   Q 163.46 234.25 162.25 241.35   Q 162.18 241.79 162.40 242.17   Q 163.64 244.38 165.52 242.67   Q 165.91 242.31 166.06 241.81   Q 167.47 237.23 170.63 233.40   C 173.58 230.54 177.81 230.52 179.69 228.45   Q 180.04 228.07 179.86 227.58   Q 177.47 221.25 173.57 216.27   C 167.77 217.89 160.35 217.06 158.13 210.74   A 0.55 0.55 0.0 0 1 158.55 210.02   L 175.77 206.73   L 180.51 205.82   Q 181.02 205.73 181.22 206.21   L 186.99 219.88   Z">
		</path>
		<path fill="#eab3a2" d="   M 148.61 208.21   Q 152.41 221.79 155.56 228.94   Q 156.14 230.25 158.14 230.31   Q 160.88 230.36 160.17 234.09   Q 158.30 234.97 155.01 233.76   L 151.23 230.73   L 149.12 224.25   C 149.78 223.45 150.13 222.95 149.99 221.84   Q 149.14 215.08 147.32 208.73   A 0.56 0.56 0.0 0 1 148.01 208.04   L 148.61 208.21   Z">
		</path>
		<path fill="#eab3a2" d="   M 138.92 216.85   C 140.70 222.73 143.41 234.49 147.34 234.27   Q 147.66 236.00 145.93 238.20   Q 140.19 236.68 138.91 230.01   C 139.81 226.19 139.55 221.96 137.83 218.34   Q 136.75 216.07 138.92 216.85   Z">
		</path>
		<path fill="#d49e8d" d="   M 173.57 216.27   Q 177.47 221.25 179.86 227.58   Q 180.04 228.07 179.69 228.45   C 177.81 230.52 173.58 230.54 170.63 233.40   L 168.84 229.41   L 174.19 226.30   Q 174.67 226.02 174.43 225.53   L 172.19 221.04   Q 172.80 220.74 173.57 216.27   Z">
		</path>
		<path fill="#ac7767" d="   M 166.41 221.06   C 166.22 221.47 166.16 221.85 166.37 222.31   C 169.01 228.21 167.21 233.33 160.17 234.09   Q 160.88 230.36 158.14 230.31   C 165.52 230.24 163.28 223.96 161.17 220.19   Q 162.68 218.05 164.81 218.29   Q 165.35 218.36 165.55 218.87   L 166.41 221.06   Z">
		</path>
		<path fill="#ac7767" d="   M 190.26 217.99   L 197.89 237.31   Q 198.08 237.81 197.79 238.27   L 186.86 255.19   Q 186.07 253.43 184.25 251.85   L 193.72 237.84   Q 194.00 237.42 193.82 236.96   L 186.99 219.88   L 190.26 217.99   Z">
		</path>
		<path fill="#eab3a2" d="   M 168.84 229.41   L 170.63 233.40   Q 167.47 237.23 166.06 241.81   Q 165.91 242.31 165.52 242.67   Q 163.64 244.38 162.40 242.17   Q 162.18 241.79 162.25 241.35   Q 163.46 234.25 168.84 229.41   Z">
		</path>
		<path fill="#c08a7a" d="   M 151.23 230.73   L 155.01 233.76   Q 151.36 239.57 145.93 238.20   Q 147.66 236.00 147.34 234.27   Q 150.95 234.37 151.23 230.73   Z">
		</path>
		<path fill="#d49e8d" d="   M 184.25 251.85   Q 186.07 253.43 186.86 255.19   C 184.64 258.09 182.83 260.38 182.50 264.23   C 181.99 270.27 181.18 277.01 173.12 275.98   L 173.25 271.83   C 179.29 273.15 178.09 265.12 178.64 261.86   C 179.30 257.92 181.88 254.99 184.25 251.85   Z">
		</path>
		<path fill="#c08a7a" d="   M 140.96 262.04   L 143.83 271.14   Q 143.99 271.62 144.49 271.67   L 148.63 272.09   Q 148.23 274.57 148.87 275.99   C 139.50 276.52 140.69 273.64 138.50 266.56   Q 138.53 262.49 140.96 262.04   Z">
		</path>
		<path fill="#eab3a2" d="   M 173.25 271.83   L 173.12 275.98   L 148.87 275.99   Q 148.23 274.57 148.63 272.09   L 173.25 271.83   Z">
		</path>
	</g>
</svg>
